[2026-03-15 12:17:58] [INFO] Jarvis Desktop launcher started.
[2026-03-15 12:17:58] [INFO] Runtime log path: C:\Jarvis\logs\runtime_2026-03-15_12-17-58.txt
[2026-03-15 12:17:58] [INFO] Launcher executable: C:\Users\anden\AppData\Local\Python\pythoncore-3.14-64\pythonw.exe
[2026-03-15 12:17:58] [INFO] Root directory: C:\Jarvis
[2026-03-15 12:17:58] [INFO] Target script: C:\Jarvis\jarvis_desktop_test.py
[2026-03-15 12:17:58] [INFO] Diagnostics script: C:\Jarvis\desktop\jarvis_diagnostics.pyw
[2026-03-15 12:17:58] [INFO] Recovery attempts allowed: 3
[2026-03-15 12:17:58] [INFO] Voice hook ready: C:\Jarvis\jarvis_voice.py
[2026-03-15 12:17:58] [INFO] Starting desktop renderer process. attempt=1
[2026-03-15 12:17:58] [INFO] Child executable: C:\Users\anden\AppData\Local\Python\pythoncore-3.14-64\pythonw.exe
[2026-03-15 12:17:58] [STDOUT] Jarvis Desktop Concept 1 - Version 1.02
[2026-03-15 12:17:58] [STDOUT] Hotkey: Ctrl + Alt + End
[2026-03-15 12:17:58] [STDERR] Traceback (most recent call last):
[2026-03-15 12:17:58] [STDERR]   File "C:\Jarvis\jarvis_desktop_test.py", line 44, in <module>
[2026-03-15 12:17:58] [STDERR]     raise SystemExit(main())
[2026-03-15 12:17:58] [STDERR]                      ~~~~^^
[2026-03-15 12:17:58] [STDERR]   File "C:\Jarvis\jarvis_desktop_test.py", line 36, in main
[2026-03-15 12:17:58] [STDERR]     raise RuntimeError("Jarvis test crash triggered intentionally")
[2026-03-15 12:17:58] [STDERR] RuntimeError: Jarvis test crash triggered intentionally
[2026-03-15 12:17:58] [INFO] Desktop renderer exited. exit_code=1
[2026-03-15 12:17:58] [WARN] Recovery attempt 1/3
[2026-03-15 12:17:59] [INFO] Starting desktop renderer process. attempt=2
[2026-03-15 12:17:59] [INFO] Child executable: C:\Users\anden\AppData\Local\Python\pythoncore-3.14-64\pythonw.exe
[2026-03-15 12:17:59] [STDOUT] Jarvis Desktop Concept 1 - Version 1.02
[2026-03-15 12:17:59] [STDOUT] Hotkey: Ctrl + Alt + End
[2026-03-15 12:17:59] [STDERR] Traceback (most recent call last):
[2026-03-15 12:17:59] [STDERR]   File "C:\Jarvis\jarvis_desktop_test.py", line 44, in <module>
[2026-03-15 12:17:59] [STDERR]     raise SystemExit(main())
[2026-03-15 12:17:59] [STDERR]                      ~~~~^^
[2026-03-15 12:17:59] [STDERR]   File "C:\Jarvis\jarvis_desktop_test.py", line 36, in main
[2026-03-15 12:17:59] [STDERR]     raise RuntimeError("Jarvis test crash triggered intentionally")
[2026-03-15 12:17:59] [STDERR] RuntimeError: Jarvis test crash triggered intentionally
[2026-03-15 12:17:59] [INFO] Desktop renderer exited. exit_code=1
[2026-03-15 12:17:59] [WARN] Recovery attempt 2/3
[2026-03-15 12:18:01] [INFO] Starting desktop renderer process. attempt=3
[2026-03-15 12:18:01] [INFO] Child executable: C:\Users\anden\AppData\Local\Python\pythoncore-3.14-64\pythonw.exe
[2026-03-15 12:18:01] [STDOUT] Jarvis Desktop Concept 1 - Version 1.02
[2026-03-15 12:18:01] [STDOUT] Hotkey: Ctrl + Alt + End
[2026-03-15 12:18:01] [STDERR] Traceback (most recent call last):
[2026-03-15 12:18:01] [STDERR]   File "C:\Jarvis\jarvis_desktop_test.py", line 44, in <module>
[2026-03-15 12:18:01] [STDERR]     raise SystemExit(main())
[2026-03-15 12:18:01] [STDERR]                      ~~~~^^
[2026-03-15 12:18:01] [STDERR]   File "C:\Jarvis\jarvis_desktop_test.py", line 36, in main
[2026-03-15 12:18:01] [STDERR]     raise RuntimeError("Jarvis test crash triggered intentionally")
[2026-03-15 12:18:01] [STDERR] RuntimeError: Jarvis test crash triggered intentionally
[2026-03-15 12:18:01] [INFO] Desktop renderer exited. exit_code=1
[2026-03-15 12:18:01] [ERROR] Crash log written: C:\Jarvis\logs\crash\crash_2026-03-15_12-18-01.txt
[2026-03-15 12:18:01] [INFO] Trying voice line 'Uhm..... Sir, I seem to be malfunctioning.' using voice --text --mode
[2026-03-15 12:18:08] [VOICE_STDOUT] ffmpeg version 2026-03-12-git-9dc44b43b2-essentials_build-www.gyan.dev Copyright (c) 2000-2026 the FFmpeg developers
[2026-03-15 12:18:08] [VOICE_STDOUT]   built with gcc 15.2.0 (Rev11, Built by MSYS2 project)
[2026-03-15 12:18:08] [VOICE_STDOUT]   configuration: --enable-gpl --enable-version3 --enable-static --disable-w32threads --disable-autodetect --enable-cairo --enable-fontconfig --enable-iconv --enable-gnutls --enable-libxml2 --enable-gmp --enable-bzlib --enable-lzma --enable-zlib --enable-libsrt --enable-libssh --enable-libzmq --enable-avisynth --enable-sdl2 --enable-libwebp --enable-libx264 --enable-libx265 --enable-libxvid --enable-libaom --enable-libopenjpeg --enable-libvpx --enable-mediafoundation --enable-libass --enable-libfreetype --enable-libfribidi --enable-libharfbuzz --enable-libvidstab --enable-libvmaf --enable-libzimg --enable-amf --enable-cuda-llvm --enable-cuvid --enable-dxva2 --enable-d3d11va --enable-d3d12va --enable-ffnvcodec --enable-libvpl --enable-nvdec --enable-nvenc --enable-vaapi --enable-openal --enable-libgme --enable-libopenmpt --enable-libopencore-amrwb --enable-libmp3lame --enable-libtheora --enable-libvo-amrwbenc --enable-libgsm --enable-libopencore-amrnb --enable-libopus --enable-libspeex --enable-libvorbis --enable-librubberband
[2026-03-15 12:18:08] [VOICE_STDOUT]   libavutil      60. 27.100 / 60. 27.100
[2026-03-15 12:18:08] [VOICE_STDOUT]   libavcodec     62. 29.100 / 62. 29.100
[2026-03-15 12:18:08] [VOICE_STDOUT]   libavformat    62. 13.100 / 62. 13.100
[2026-03-15 12:18:08] [VOICE_STDOUT]   libavdevice    62.  4.100 / 62.  4.100
[2026-03-15 12:18:08] [VOICE_STDOUT]   libavfilter    11. 15.101 / 11. 15.101
[2026-03-15 12:18:08] [VOICE_STDOUT]   libswscale      9.  6.100 /  9.  6.100
[2026-03-15 12:18:08] [VOICE_STDOUT]   libswresample   6.  4.100 /  6.  4.100
[2026-03-15 12:18:08] [VOICE_STDOUT] [in#0/mp3 @ 000001d3bc566a00] Estimating duration from bitrate, this may be inaccurate
[2026-03-15 12:18:08] [VOICE_STDOUT] Input #0, mp3, from 'C:\Users\anden\AppData\Local\Temp\tmp434la7kj.mp3':
[2026-03-15 12:18:08] [VOICE_STDOUT]   Duration: 00:00:05.14, start: 0.000000, bitrate: 48 kb/s
[2026-03-15 12:18:08] [VOICE_STDOUT]   Stream #0:0: Audio: mp3 (mp3float), 24000 Hz, mono, fltp, 48 kb/s
[2026-03-15 12:18:08] [VOICE_STDOUT] [Parsed_acrusher_2 @ 000001d3bc57e000] [Eval @ 00000010097fcb30] Undefined constant or missing '(' in 't*1.7)'
[2026-03-15 12:18:08] [VOICE_STDOUT] [Parsed_acrusher_2 @ 000001d3bc57e000] Unable to parse "mix" option value "0.55+0.45*sin(2*PI*t*1.7)"
[2026-03-15 12:18:08] [VOICE_STDOUT] [fc#-1 @ 000001d3bc578a00] Error applying option 'mix' to filter 'acrusher': Invalid argument
[2026-03-15 12:18:08] [VOICE_STDOUT] Error opening output file C:\Users\anden\AppData\Local\Temp\tmpjbmtmwrz.wav.
[2026-03-15 12:18:08] [VOICE_STDOUT] Error opening output files: Invalid argument
[2026-03-15 12:18:08] [VOICE_STDERR] [mp3 @ 000001D3E460E300] Estimating duration from bitrate, this may be inaccurate
[2026-03-15 12:18:08] [VOICE_STDERR] Input #0, mp3, from 'C:/Users/anden/AppData/Local/Temp/tmp434la7kj.mp3':
[2026-03-15 12:18:08] [VOICE_STDERR]   Duration: 00:00:05.14, start: 0.000000, bitrate: 48 kb/s
[2026-03-15 12:18:08] [VOICE_STDERR]   Stream #0:0: Audio: mp3 (mp3float), 24000 Hz, mono, fltp, 48 kb/s
[2026-03-15 12:18:08] [INFO] Voice line completed: Uhm..... Sir, I seem to be malfunctioning.
[2026-03-15 12:18:08] [INFO] Failure voice step 1/3 success=True line=Uhm..... Sir, I seem to be malfunctioning.
[2026-03-15 12:18:08] [INFO] Trying voice line 'Attempting restart.' using voice --text --mode
[2026-03-15 12:18:12] [VOICE_STDOUT] ffmpeg version 2026-03-12-git-9dc44b43b2-essentials_build-www.gyan.dev Copyright (c) 2000-2026 the FFmpeg developers
[2026-03-15 12:18:12] [VOICE_STDOUT]   built with gcc 15.2.0 (Rev11, Built by MSYS2 project)
[2026-03-15 12:18:12] [VOICE_STDOUT]   configuration: --enable-gpl --enable-version3 --enable-static --disable-w32threads --disable-autodetect --enable-cairo --enable-fontconfig --enable-iconv --enable-gnutls --enable-libxml2 --enable-gmp --enable-bzlib --enable-lzma --enable-zlib --enable-libsrt --enable-libssh --enable-libzmq --enable-avisynth --enable-sdl2 --enable-libwebp --enable-libx264 --enable-libx265 --enable-libxvid --enable-libaom --enable-libopenjpeg --enable-libvpx --enable-mediafoundation --enable-libass --enable-libfreetype --enable-libfribidi --enable-libharfbuzz --enable-libvidstab --enable-libvmaf --enable-libzimg --enable-amf --enable-cuda-llvm --enable-cuvid --enable-dxva2 --enable-d3d11va --enable-d3d12va --enable-ffnvcodec --enable-libvpl --enable-nvdec --enable-nvenc --enable-vaapi --enable-openal --enable-libgme --enable-libopenmpt --enable-libopencore-amrwb --enable-libmp3lame --enable-libtheora --enable-libvo-amrwbenc --enable-libgsm --enable-libopencore-amrnb --enable-libopus --enable-libspeex --enable-libvorbis --enable-librubberband
[2026-03-15 12:18:12] [VOICE_STDOUT]   libavutil      60. 27.100 / 60. 27.100
[2026-03-15 12:18:12] [VOICE_STDOUT]   libavcodec     62. 29.100 / 62. 29.100
[2026-03-15 12:18:12] [VOICE_STDOUT]   libavformat    62. 13.100 / 62. 13.100
[2026-03-15 12:18:12] [VOICE_STDOUT]   libavdevice    62.  4.100 / 62.  4.100
[2026-03-15 12:18:12] [VOICE_STDOUT]   libavfilter    11. 15.101 / 11. 15.101
[2026-03-15 12:18:12] [VOICE_STDOUT]   libswscale      9.  6.100 /  9.  6.100
[2026-03-15 12:18:12] [VOICE_STDOUT]   libswresample   6.  4.100 /  6.  4.100
[2026-03-15 12:18:12] [VOICE_STDOUT] [in#0/mp3 @ 0000021ffe596a00] Estimating duration from bitrate, this may be inaccurate
[2026-03-15 12:18:12] [VOICE_STDOUT] Input #0, mp3, from 'C:\Users\anden\AppData\Local\Temp\tmpt9iydq4j.mp3':
[2026-03-15 12:18:12] [VOICE_STDOUT]   Duration: 00:00:02.66, start: 0.000000, bitrate: 48 kb/s
[2026-03-15 12:18:12] [VOICE_STDOUT]   Stream #0:0: Audio: mp3 (mp3float), 24000 Hz, mono, fltp, 48 kb/s
[2026-03-15 12:18:12] [VOICE_STDOUT] [Parsed_acrusher_2 @ 0000021ffe5adf80] [Eval @ 0000009acddfcee0] Undefined constant or missing '(' in 't*1.7)'
[2026-03-15 12:18:12] [VOICE_STDOUT] [Parsed_acrusher_2 @ 0000021ffe5adf80] Unable to parse "mix" option value "0.55+0.45*sin(2*PI*t*1.7)"
[2026-03-15 12:18:12] [VOICE_STDOUT] [fc#-1 @ 0000021ffe5a89c0] Error applying option 'mix' to filter 'acrusher': Invalid argument
[2026-03-15 12:18:12] [VOICE_STDOUT] Error opening output file C:\Users\anden\AppData\Local\Temp\tmpt3h3b3da.wav.
[2026-03-15 12:18:12] [VOICE_STDOUT] Error opening output files: Invalid argument
[2026-03-15 12:18:12] [VOICE_STDERR] [mp3 @ 000001F183987FC0] Estimating duration from bitrate, this may be inaccurate
[2026-03-15 12:18:12] [VOICE_STDERR] Input #0, mp3, from 'C:/Users/anden/AppData/Local/Temp/tmpt9iydq4j.mp3':
[2026-03-15 12:18:12] [VOICE_STDERR]   Duration: 00:00:02.66, start: 0.000000, bitrate: 48 kb/s
[2026-03-15 12:18:12] [VOICE_STDERR]   Stream #0:0: Audio: mp3 (mp3float), 24000 Hz, mono, fltp, 48 kb/s
[2026-03-15 12:18:12] [INFO] Voice line completed: Attempting restart.
[2026-03-15 12:18:12] [INFO] Failure voice step 2/3 success=True line=Attempting restart.
[2026-03-15 12:18:13] [INFO] Trying voice line 'Restart failed.' using voice --text --mode
[2026-03-15 12:18:17] [VOICE_STDOUT] ffmpeg version 2026-03-12-git-9dc44b43b2-essentials_build-www.gyan.dev Copyright (c) 2000-2026 the FFmpeg developers
[2026-03-15 12:18:17] [VOICE_STDOUT]   built with gcc 15.2.0 (Rev11, Built by MSYS2 project)
[2026-03-15 12:18:17] [VOICE_STDOUT]   configuration: --enable-gpl --enable-version3 --enable-static --disable-w32threads --disable-autodetect --enable-cairo --enable-fontconfig --enable-iconv --enable-gnutls --enable-libxml2 --enable-gmp --enable-bzlib --enable-lzma --enable-zlib --enable-libsrt --enable-libssh --enable-libzmq --enable-avisynth --enable-sdl2 --enable-libwebp --enable-libx264 --enable-libx265 --enable-libxvid --enable-libaom --enable-libopenjpeg --enable-libvpx --enable-mediafoundation --enable-libass --enable-libfreetype --enable-libfribidi --enable-libharfbuzz --enable-libvidstab --enable-libvmaf --enable-libzimg --enable-amf --enable-cuda-llvm --enable-cuvid --enable-dxva2 --enable-d3d11va --enable-d3d12va --enable-ffnvcodec --enable-libvpl --enable-nvdec --enable-nvenc --enable-vaapi --enable-openal --enable-libgme --enable-libopenmpt --enable-libopencore-amrwb --enable-libmp3lame --enable-libtheora --enable-libvo-amrwbenc --enable-libgsm --enable-libopencore-amrnb --enable-libopus --enable-libspeex --enable-libvorbis --enable-librubberband
[2026-03-15 12:18:17] [VOICE_STDOUT]   libavutil      60. 27.100 / 60. 27.100
[2026-03-15 12:18:17] [VOICE_STDOUT]   libavcodec     62. 29.100 / 62. 29.100
[2026-03-15 12:18:17] [VOICE_STDOUT]   libavformat    62. 13.100 / 62. 13.100
[2026-03-15 12:18:17] [VOICE_STDOUT]   libavdevice    62.  4.100 / 62.  4.100
[2026-03-15 12:18:17] [VOICE_STDOUT]   libavfilter    11. 15.101 / 11. 15.101
[2026-03-15 12:18:17] [VOICE_STDOUT]   libswscale      9.  6.100 /  9.  6.100
[2026-03-15 12:18:17] [VOICE_STDOUT]   libswresample   6.  4.100 /  6.  4.100
[2026-03-15 12:18:17] [VOICE_STDOUT] [in#0/mp3 @ 0000026a46eb69c0] Estimating duration from bitrate, this may be inaccurate
[2026-03-15 12:18:17] [VOICE_STDOUT] Input #0, mp3, from 'C:\Users\anden\AppData\Local\Temp\tmpjk_lluyx.mp3':
[2026-03-15 12:18:17] [VOICE_STDOUT]   Duration: 00:00:02.57, start: 0.000000, bitrate: 48 kb/s
[2026-03-15 12:18:17] [VOICE_STDOUT]   Stream #0:0: Audio: mp3 (mp3float), 24000 Hz, mono, fltp, 48 kb/s
[2026-03-15 12:18:17] [VOICE_STDOUT] [Parsed_acrusher_2 @ 0000026a46ecdf40] [Eval @ 00000076ae5fd1b0] Undefined constant or missing '(' in 't*1.7)'
[2026-03-15 12:18:17] [VOICE_STDOUT] [Parsed_acrusher_2 @ 0000026a46ecdf40] Unable to parse "mix" option value "0.55+0.45*sin(2*PI*t*1.7)"
[2026-03-15 12:18:17] [VOICE_STDOUT] [fc#-1 @ 0000026a46eca880] Error applying option 'mix' to filter 'acrusher': Invalid argument
[2026-03-15 12:18:17] [VOICE_STDOUT] Error opening output file C:\Users\anden\AppData\Local\Temp\tmp9jwi504l.wav.
[2026-03-15 12:18:17] [VOICE_STDOUT] Error opening output files: Invalid argument
[2026-03-15 12:18:17] [VOICE_STDERR] [mp3 @ 0000020AE252F440] Estimating duration from bitrate, this may be inaccurate
[2026-03-15 12:18:17] [VOICE_STDERR] Input #0, mp3, from 'C:/Users/anden/AppData/Local/Temp/tmpjk_lluyx.mp3':
[2026-03-15 12:18:17] [VOICE_STDERR]   Duration: 00:00:02.57, start: 0.000000, bitrate: 48 kb/s
[2026-03-15 12:18:17] [VOICE_STDERR]   Stream #0:0: Audio: mp3 (mp3float), 24000 Hz, mono, fltp, 48 kb/s
[2026-03-15 12:18:17] [INFO] Voice line completed: Restart failed.
[2026-03-15 12:18:17] [INFO] Failure voice step 3/3 success=True line=Restart failed.
[2026-03-15 12:18:18] [INFO] Diagnostics process launched.
